# xmcd CD database file
#
# Track frame offsets:
#	151
#	13483
#	26498
#	39063
#	52064
#	64484
#	76717
#	89054
#	104120
#	115478
#	128773
#	142769
#	158201
#	170070
#	184177
#	199063
#	212140
#	223235
#	237909
#	250667
#	265581
#	279176
#	291603
#	303227
#	317242
#
# Disc length: 4401 seconds
#
# Revision: 2
# Processed by: cddbd v1.5.1PL0 Copyright (c) Steve Scherf et al.
# Submitted via: CDex 1.51
#
DISCID=7c112f19
DTITLE=Various Artist - The Roaring 'Twenties
DYEAR=1900
DGENRE=Jazz
TTITLE0=Charleston - Savoy Orpheans
TTITLE1=Black Bottom - Bert Firman and his Dance Orchestra
TTITLE2=I Wanna Be Loved By You - Helen Kan with Orchestra
TTITLE3=Let's Misbehave - Irving Aaronson and his Commanders
TTITLE4=Collegiana - Waring's Pennsylvanians
TTITLE5=Do Do Do - Gertrude Lawrence and Harold French with His Majesty's Theatre Orchestra
TTITLE6=Dance, Little Lady - Noel Coward with Orchestra
TTITLE7=Crazy Rhythm - Roger Wolfe Kahn with his Orchestra
TTITLE8=Ice Cream - Waring's Pennsylvanians
TTITLE9=Button Up Your Overcoat - Annette Hanshaw with The New England Yankees
TTITLE10=My One And Only - Fred Astaire with Two-Piano Accompaniment
TTITLE11=Pasadena - Savoy Havana Band
TTITLE12=Nobody's Sweetheart - Paul Whiteman and his Orchestra
TTITLE13=C.O.N.S.T.A.N.T.I.N.O.P.L.E. - Johnny Hamp's Kentucky Serenaders
TTITLE14=My Heart Stood Still - Jessie Matthews with Leslie 'Hutch' Hutchinson (piano)
TTITLE15=Clap Yo' Hands - Claude Hulbert with His Majesty's Theatre Chorus and Orchestra
TTITLE16=Broadway Medody - Charles King with Orchestra
TTITLE17=Three O'clock In The Morning - Paul Whiteman and his Orchestra
TTITLE18=Varsity Drag - Cas Hagan and his Park Central Orchestra
TTITLE19=The Best Things In Life Are Free - Jack Hylton and his Orchestra
TTITLE20=S'Wonderful - Adèle Astaire and Bernard Clifton with Orchestra
TTITLE21=I Ain't Got Nobody - Louis Armstrong and his Orchestra
TTITLE22=I'm Sitting On Top Of The World - Al Jolson with Carl Fenton and his Orchestra
TTITLE23=Miss Anabelle Lee - Whispering Jack Smith with The Whispering Orchestra
TTITLE24=Who? - Jack Buchanan and Binnie Hale with Novelty Orchestra
EXTD=
EXTT0=
EXTT1=
EXTT2=
EXTT3=
EXTT4=
EXTT5=
EXTT6=
EXTT7=
EXTT8=
EXTT9=
EXTT10=
EXTT11=
EXTT12=
EXTT13=
EXTT14=
EXTT15=
EXTT16=
EXTT17=
EXTT18=
EXTT19=
EXTT20=
EXTT21=
EXTT22=
EXTT23=
EXTT24=
PLAYORDER=
